<svg width="1024" height="1024" viewBox="0 0 1024 1024" fill="none" xmlns="http://www.w3.org/2000/svg">
<path d="M174.036 841V734.818H199.7V820.158H243.874V841H174.036ZM282.529 842.348C277.448 842.348 272.937 841.501 268.997 839.808C265.091 838.079 261.998 835.487 259.716 832.031C257.47 828.54 256.346 824.167 256.346 818.913C256.346 814.489 257.124 810.756 258.679 807.714C260.235 804.673 262.378 802.201 265.108 800.3C267.839 798.399 270.984 796.965 274.544 795.997C278.105 794.995 281.907 794.321 285.951 793.975C290.479 793.56 294.125 793.128 296.89 792.679C299.656 792.195 301.66 791.521 302.905 790.657C304.183 789.758 304.823 788.497 304.823 786.872V786.613C304.823 783.951 303.907 781.895 302.075 780.443C300.243 778.991 297.772 778.266 294.661 778.266C291.308 778.266 288.612 778.991 286.573 780.443C284.534 781.895 283.237 783.9 282.684 786.457L259.302 785.628C259.993 780.789 261.773 776.468 264.642 772.666C267.545 768.83 271.52 765.822 276.566 763.645C281.647 761.433 287.748 760.327 294.868 760.327C299.949 760.327 304.633 760.932 308.919 762.141C313.205 763.317 316.938 765.045 320.118 767.326C323.298 769.573 325.752 772.338 327.48 775.621C329.243 778.905 330.124 782.655 330.124 786.872V841H306.275V829.905H305.652C304.235 832.601 302.421 834.882 300.209 836.749C298.031 838.615 295.456 840.015 292.483 840.948C289.545 841.881 286.227 842.348 282.529 842.348ZM290.358 825.757C293.088 825.757 295.542 825.204 297.72 824.098C299.932 822.992 301.695 821.471 303.008 819.536C304.322 817.565 304.978 815.284 304.978 812.692V805.122C304.253 805.502 303.371 805.848 302.334 806.159C301.332 806.47 300.226 806.764 299.016 807.04C297.806 807.317 296.562 807.559 295.283 807.766C294.004 807.974 292.777 808.164 291.602 808.337C289.217 808.717 287.178 809.304 285.484 810.099C283.825 810.894 282.546 811.931 281.647 813.21C280.783 814.455 280.351 815.941 280.351 817.669C280.351 820.296 281.285 822.301 283.151 823.683C285.052 825.066 287.454 825.757 290.358 825.757ZM348.546 841V761.364H373.173V775.881H374.003C375.455 770.627 377.822 766.721 381.106 764.163C384.389 761.571 388.209 760.275 392.564 760.275C393.739 760.275 394.949 760.361 396.193 760.534C397.437 760.672 398.595 760.897 399.667 761.208V783.243C398.457 782.828 396.867 782.5 394.897 782.258C392.961 782.016 391.233 781.895 389.712 781.895C386.705 781.895 383.992 782.569 381.572 783.917C379.187 785.23 377.304 787.08 375.921 789.464C374.573 791.815 373.899 794.58 373.899 797.76V841H348.546ZM432.373 842.348C427.292 842.348 422.781 841.501 418.841 839.808C414.935 838.079 411.841 835.487 409.56 832.031C407.314 828.54 406.19 824.167 406.19 818.913C406.19 814.489 406.968 810.756 408.523 807.714C410.079 804.673 412.222 802.201 414.952 800.3C417.683 798.399 420.828 796.965 424.388 795.997C427.949 794.995 431.751 794.321 435.795 793.975C440.323 793.56 443.969 793.128 446.734 792.679C449.499 792.195 451.504 791.521 452.748 790.657C454.027 789.758 454.667 788.497 454.667 786.872V786.613C454.667 783.951 453.751 781.895 451.919 780.443C450.087 778.991 447.616 778.266 444.505 778.266C441.152 778.266 438.456 778.991 436.417 780.443C434.377 781.895 433.081 783.9 432.528 786.457L409.145 785.628C409.837 780.789 411.617 776.468 414.486 772.666C417.389 768.83 421.364 765.822 426.41 763.645C431.491 761.433 437.592 760.327 444.712 760.327C449.793 760.327 454.477 760.932 458.763 762.141C463.049 763.317 466.782 765.045 469.962 767.326C473.141 769.573 475.596 772.338 477.324 775.621C479.087 778.905 479.968 782.655 479.968 786.872V841H456.118V829.905H455.496C454.079 832.601 452.265 834.882 450.052 836.749C447.875 838.615 445.3 840.015 442.327 840.948C439.389 841.881 436.071 842.348 432.373 842.348ZM440.202 825.757C442.932 825.757 445.386 825.204 447.564 824.098C449.776 822.992 451.539 821.471 452.852 819.536C454.166 817.565 454.822 815.284 454.822 812.692V805.122C454.096 805.502 453.215 805.848 452.178 806.159C451.176 806.47 450.07 806.764 448.86 807.04C447.65 807.317 446.406 807.559 445.127 807.766C443.848 807.974 442.621 808.164 441.446 808.337C439.061 808.717 437.022 809.304 435.328 810.099C433.669 810.894 432.39 811.931 431.491 813.21C430.627 814.455 430.195 815.941 430.195 817.669C430.195 820.296 431.128 822.301 432.995 823.683C434.896 825.066 437.298 825.757 440.202 825.757ZM562.628 734.818H588.24V803.308C588.24 811.223 586.356 818.118 582.589 823.994C578.821 829.836 573.568 834.364 566.828 837.578C560.087 840.758 552.259 842.348 543.341 842.348C534.32 842.348 526.439 840.758 519.699 837.578C512.959 834.364 507.722 829.836 503.989 823.994C500.257 818.118 498.39 811.223 498.39 803.308V734.818H524.054V801.078C524.054 804.742 524.849 808.008 526.439 810.877C528.064 813.746 530.328 815.993 533.231 817.617C536.134 819.242 539.504 820.054 543.341 820.054C547.178 820.054 550.53 819.242 553.399 817.617C556.303 815.993 558.567 813.746 560.191 810.877C561.816 808.008 562.628 804.742 562.628 801.078V734.818ZM652.197 761.364V780.028H601.957V761.364H652.197ZM612.482 742.284H637.835V815.958C637.835 817.513 638.077 818.775 638.561 819.743C639.079 820.676 639.823 821.35 640.79 821.765C641.758 822.145 642.916 822.335 644.264 822.335C645.232 822.335 646.252 822.249 647.323 822.076C648.429 821.869 649.259 821.696 649.812 821.558L653.648 839.859C652.439 840.205 650.728 840.637 648.515 841.156C646.338 841.674 643.728 842.002 640.687 842.141C634.742 842.417 629.643 841.726 625.392 840.067C621.175 838.373 617.943 835.746 615.697 832.186C613.484 828.626 612.413 824.15 612.482 818.758V742.284ZM668.052 841V761.364H693.405V841H668.052ZM680.755 752.083C677.195 752.083 674.136 750.908 671.578 748.558C669.02 746.173 667.741 743.304 667.741 739.951C667.741 736.633 669.02 733.799 671.578 731.448C674.136 729.063 677.195 727.871 680.755 727.871C684.349 727.871 687.408 729.063 689.932 731.448C692.489 733.799 693.768 736.633 693.768 739.951C693.768 743.304 692.489 746.173 689.932 748.558C687.408 750.908 684.349 752.083 680.755 752.083ZM737.816 734.818V841H712.463V734.818H737.816ZM782.848 734.818L802.239 768.363H803.068L822.666 734.818H851.389L819.348 787.909L852.426 841H822.977L803.068 807.092H802.239L782.329 841H753.088L786.011 787.909L753.918 734.818H782.848Z" fill="#F2211D"/>
<path d="M478.122 222.652H558.122L619.622 301.183L623.122 305.652L625.622 302.488L711.622 193.652H798.122L671.122 359.152C669.19 363.055 669.178 365.245 671.122 369.152L791.122 520.152C793.678 527.636 793.626 531.669 791.122 538.652L523.622 691.152C518.173 695.084 515.002 695.161 509.122 691.152L245.622 544.152C240.931 541.943 239.29 539.896 238.122 534.652V188.152C237.684 184.458 238.401 182.775 240.622 180.152L294.122 150.152C301.256 145.923 305.206 145.976 312.122 150.152L364.622 179.652C366.927 182.804 367.818 185.054 367.622 188.152L369.622 462.152C369.326 469.825 370.812 473.211 376.122 477.652L517.622 559.152C525.038 563.029 529.206 562.871 536.622 559.152L668.122 484.652C670.715 480.943 670.353 478.861 668.122 475.152L631.122 428.652C628.461 424.603 626.692 423.594 622.622 426.152L563.622 503.152C560.436 509.011 557.717 510.102 551.622 510.652H476.622C472.78 507.753 472.37 506.496 474.122 503.152L578.622 371.152C582.509 366.465 582.996 363.839 578.622 359.152L478.122 228.652C475.885 225.954 475.715 224.613 478.122 222.652Z" fill="#F2211D"/>
</svg>
